<svg id="Layer_1" data-name="Layer 1" xmlns="http://www.w3.org/2000/svg" viewBox="0 0 1752.31 302.92"><defs><style>.cls-1,.cls-2,.cls-3{fill:#fff;}.cls-2,.cls-3,.cls-4,.cls-5{stroke:#fff;stroke-miterlimit:10;}.cls-2{stroke-width:5px;}.cls-4,.cls-5{fill:none;}.cls-4{stroke-width:10px;}.cls-5{stroke-width:2px;}</style></defs><path class="cls-1" d="M561.15,343.48v-8.94c17.15-2.29,17.9-5.11,14.13-16-3-8.76-7.66-21.12-12.26-33.82H508.54c-3.43,9.49-7.3,19.62-10.37,28.74-5.74,16.84-.23,19,21.33,21.09v8.94h-65v-8.94c17-2.12,21.27-4.31,30.52-27.07l55.91-137.41,11.42-2.1c17.13,45.72,35.54,93.79,52.85,138.49,9.49,24,11.91,26,30,28.09v8.94ZM536.33,212c-8.1,20.33-16.2,40.26-23.4,60.11h45.45Z" transform="translate(-98.54 -98.54)"/><path class="cls-1" d="M732.79,258.44a57.39,57.39,0,0,0-7-16.35c-3.1-4.07-4.66-5.42-15-5.42H697v83.88c0,14.43,1.67,15.8,18,17v6H658v-6c15.76-1.17,17.32-2.48,17.32-17V236.67H662.49c-10,0-12.86,1.41-16.14,6-2.39,3.41-4.53,9-6.86,15.88h-6.32c1.2-12.12,2.39-24.94,2.81-33.89h4.95c2.69,4.11,4.78,4.28,10,4.28h71.54c4.91,0,7-.94,10-4.28h4.9c.11,7.71.83,22.23,1.73,33.25Z" transform="translate(-98.54 -98.54)"/><path class="cls-1" d="M845.79,313.08c-1.31,6.84-6.46,25.4-8.14,30.4H750.57v-6c16-1.24,17.42-2.35,17.42-17.22V252.17c0-14.86-1.8-16.09-15.57-17.27v-6h53.23v6c-14.12,1.3-16,2.35-16,17.27v69.55c0,10.06.74,13.79,10.73,14,.3.11,10.19.17,11,.17,9.86,0,12.55-1.74,16.79-6.38,3.79-3.89,8.14-11.28,11.19-18.26Z" transform="translate(-98.54 -98.54)"/><path class="cls-1" d="M924.55,343.48v-6c11.43-1.53,11.93-3.4,9.42-10.67-2-5.84-5.11-14.08-8.18-22.55H889.47c-2.28,6.33-4.86,13.08-6.91,19.16-3.83,11.23-.15,12.64,14.22,14.06v6H853.45v-6c11.31-1.41,14.18-2.87,20.35-18l37.27-91.6,7.61-1.4C930.1,257,942.37,289,953.91,318.79c6.33,16,7.94,17.32,20,18.73v6ZM908,255.86c-5.4,13.55-10.8,26.84-15.6,40.07h30.3Z" transform="translate(-98.54 -98.54)"/><path class="cls-1" d="M1049,257.21c-3.4-11.4-8.42-23.77-25.06-23.77-11.67,0-17.8,8.21-17.8,17.83,0,10.56,7.08,16.5,22.56,24.19,20,9.9,31.23,18.69,31.23,35.89,0,20-17.16,34.78-41.94,34.78-11.24,0-21.16-3-29.22-5.59-1.2-4.36-3.93-20.47-5.19-29.18l6.5-1.53C993.7,321.18,1003,339,1021,339c11.64,0,18.72-7.43,18.72-18.77s-6.77-17.2-22.1-25.32c-18.73-9.93-30.37-18.62-30.37-36.26s14.21-32.21,40-32.21c11.57,0,21.1,2.64,25,3.23.72,6.46,1.79,14.89,3.22,26.11Z" transform="translate(-98.54 -98.54)"/><path class="cls-1" d="M1237.26,214.07c-5.1-17.1-12.64-35.66-37.6-35.66-17.5,0-26.7,12.32-26.7,26.76,0,15.83,10.62,24.74,33.85,36.28,30,14.84,46.83,28,46.83,53.83,0,30-25.72,52.17-62.91,52.17-16.85,0-31.73-4.49-43.82-8.38-1.8-6.54-5.91-30.7-7.79-43.78l9.75-2.28c5.38,17,19.33,43.8,46.28,43.8,17.46,0,28.08-11.16,28.08-28.17s-10.16-25.8-33.16-38c-28.09-14.9-45.55-27.93-45.55-54.4,0-26.28,21.32-48.31,60-48.31,17.35,0,31.64,4,37.47,4.85,1.07,9.69,2.68,22.32,4.83,39.16Z" transform="translate(-98.54 -98.54)"/><path class="cls-1" d="M1369.17,258.44a57.72,57.72,0,0,0-7-16.35c-3.11-4.07-4.67-5.42-15-5.42h-13.75v83.88c0,14.43,1.67,15.8,18,17v6h-57v-6c15.76-1.17,17.31-2.48,17.31-17V236.67h-12.83c-10,0-12.86,1.41-16.15,6-2.39,3.41-4.52,9-6.85,15.88h-6.32c1.19-12.12,2.38-24.94,2.81-33.89h4.94c2.69,4.11,4.78,4.28,10,4.28h71.55c4.91,0,7-.94,10-4.28h4.89c.12,7.71.83,22.23,1.73,33.25Z" transform="translate(-98.54 -98.54)"/><path class="cls-1" d="M1513.8,234.9c-11.43.94-14.85,4.1-15.45,11.06-.41,4.86-.77,11.34-.77,25v21.67c0,16.14-2.39,30.92-12.68,41.55-8.32,8.52-20.87,11.86-33.49,11.86-11.35,0-22.94-2.35-31.19-8.8-10.54-7.88-15.62-19.12-15.62-39.16V253.4c0-16.09-1.56-17.26-15.45-18.5v-6h52.57v6c-13.77,1.11-15.32,2.41-15.32,18.5v45.89c0,21.83,10.75,35.24,30.77,35.24,22.8,0,31.7-15.51,31.7-42.93V271c0-13.57-.54-20-.9-25.14-.66-8-5.37-10.24-18.18-10.95v-6h44Z" transform="translate(-98.54 -98.54)"/><path class="cls-1" d="M1576.34,228.94c23.79,0,40.35,4.82,51.71,15.33,9,8.34,15.84,20.68,15.84,38.17,0,20.39-8.61,36.33-22.43,46.55-13.41,9.93-30.59,14.49-51.62,14.49h-46.78v-6c14.27-1.18,15.57-2.64,15.57-17.21V252.17c0-14.92-2-16.09-15.57-17.27v-6Zm-16,90.07c0,12.76,4.11,16.81,17.34,16.81,27.06,0,41.94-18.36,41.94-50.8,0-17.6-5.36-32.23-15.69-40.12-7.79-6.6-17.5-8.88-29.52-8.88-7.15,0-10.64,1.29-12,2.47-1.61,1.4-2.1,4-2.1,9.75Z" transform="translate(-98.54 -98.54)"/><path class="cls-1" d="M1660.19,343.48v-6c14-1.36,15.57-2.29,15.57-17.16V252.23c0-14.92-1.67-16.08-15.57-17.33v-6h52.89v6c-14,1.36-15.64,2.41-15.64,17.33v68.13c0,14.81,1.56,15.69,15.64,17.16v6Z" transform="translate(-98.54 -98.54)"/><path class="cls-1" d="M1791.3,226.47c32.32,0,59.55,23.54,59.55,58.38,0,37.66-26.9,61.28-60.51,61.28-35.4,0-61.11-25.73-61.11-59.43C1729.23,256.07,1751.44,226.47,1791.3,226.47Zm-3,7.32c-18.94,0-34.09,17.25-34.09,49.06,0,30.83,14.22,55.89,38.89,55.89,18.69,0,33-16.09,33-48.95C1826.13,254.16,1810.05,233.79,1788.29,233.79Z" transform="translate(-98.54 -98.54)"/><path class="cls-1" d="M258.72,233.88v-5c9.53-1.27,9.95-2.84,7.85-8.9-1.65-4.87-4.25-11.74-6.81-18.8H229.48c-1.91,5.28-4,10.91-5.76,16-3.2,9.36-.13,10.54,11.85,11.72v5H199.45v-5c9.43-1.18,11.82-2.4,17-15l31.07-76.36,6.34-1.17c9.53,25.41,19.76,52.13,29.38,77,5.27,13.35,6.62,14.43,16.66,15.61v5Zm-13.8-73c-4.49,11.3-9,22.37-13,33.41h25.26Z" transform="translate(-98.54 -98.54)"/><path class="cls-1" d="M271.89,284.38c-2.83-9.5-7-19.82-20.89-19.82-9.73,0-14.84,6.85-14.84,14.87,0,8.8,5.9,13.75,18.81,20.16,16.69,8.25,26,15.58,26,29.92,0,16.67-14.3,29-35,29-9.37,0-17.64-2.49-24.36-4.65-1-3.64-3.28-17.07-4.33-24.33l5.42-1.27c3,9.46,10.74,24.34,25.72,24.34,9.7,0,15.61-6.2,15.61-15.65s-5.65-14.34-18.43-21.11c-15.61-8.27-25.32-15.52-25.32-30.23s11.85-26.85,33.35-26.85c9.65,0,17.59,2.21,20.83,2.7.59,5.38,1.48,12.4,2.68,21.76Z" transform="translate(-98.54 -98.54)"/><line class="cls-2" x1="247.05" y1="55.87" x2="276.59" y2="26.33"/><line class="cls-2" x1="26.33" y1="276.59" x2="55.87" y2="247.05"/><path class="cls-3" d="M370,130.05a13.91,13.91,0,0,1,3.21,14.68L400,100l-44.73,26.84A13.91,13.91,0,0,1,370,130.05Z" transform="translate(-98.54 -98.54)"/><path class="cls-3" d="M350.86,129.48l-.09.06h0Z" transform="translate(-98.54 -98.54)"/><path class="cls-3" d="M370.46,149.23l.06-.09-.07.08Z" transform="translate(-98.54 -98.54)"/><path class="cls-3" d="M130.05,370a13.91,13.91,0,0,1-3.21-14.68L100,400l44.73-26.84A13.91,13.91,0,0,1,130.05,370Z" transform="translate(-98.54 -98.54)"/><path class="cls-3" d="M149.14,370.52l.09-.06h0Z" transform="translate(-98.54 -98.54)"/><path class="cls-3" d="M129.54,350.77l-.06.09.07-.08Z" transform="translate(-98.54 -98.54)"/><circle class="cls-4" cx="151.46" cy="151.4" r="136.02"/><path class="cls-5" d="M114,249.94H386" transform="translate(-98.54 -98.54)"/><path class="cls-5" d="M122.52,297.48c40.58,14.76,84.54,20,127.57,20s87-5.35,127.46-20.18" transform="translate(-98.54 -98.54)"/><path class="cls-5" d="M118.79,273c44,8.32,89.18,10.81,133.94,10.67,44.32-.14,89.1-2.81,132.6-11.58" transform="translate(-98.54 -98.54)"/><path class="cls-5" d="M139.69,329.35c8.18,3.36,20,8,25.7,9.79a266.1,266.1,0,0,0,30.68,7.41c9.5,1.72,19.1,2.94,28.72,3.71,8.43.67,16.88,1,25.3,1,10.16,0,20.35-.5,30.5-1.51a284.09,284.09,0,0,0,28.88-4.33,259.39,259.39,0,0,0,30.95-8.26h0q10.15-3.42,20-7.72" transform="translate(-98.54 -98.54)"/><path class="cls-5" d="M118.79,226.85c44-8.32,89.18-10.81,133.94-10.67,44.32.14,89.1,2.81,132.6,11.58" transform="translate(-98.54 -98.54)"/><path class="cls-5" d="M118.36,203.93c42.4-16.13,88.62-21.74,133.82-21.52,42.34.21,85.64,5.55,125.52,20.23" transform="translate(-98.54 -98.54)"/><path class="cls-5" d="M139.8,170.19c34.51-15.06,72.67-21.59,110.29-21.55s75.82,6.65,110.31,21.82" transform="translate(-98.54 -98.54)"/><path class="cls-5" d="M229.2,114c-8.76,44.61-10.94,90.54-10.62,135.92s3.22,91.27,12,135.92" transform="translate(-98.54 -98.54)"/><path class="cls-5" d="M205.67,378.57c-14.81-41-20.26-85.29-20.55-128.63-.29-43.07,4.43-87.28,19-128.09" transform="translate(-98.54 -98.54)"/><path class="cls-5" d="M174.42,362.8a245.64,245.64,0,0,1-9-23.66,270.42,270.42,0,0,1-8.08-31.41c-1.9-9.71-3.3-19.53-4.22-29.37-.9-9.47-1.36-19-1.43-28.42s.27-18.91,1-28.37a293.58,293.58,0,0,1,3.82-29.23,262.26,262.26,0,0,1,7.65-31.22A237.72,237.72,0,0,1,172.73,138" transform="translate(-98.54 -98.54)"/><path class="cls-5" d="M333.16,357.59c13.85-33.94,19.52-71.15,19.26-107.65-.26-37.07-6.63-74.75-21.11-109" transform="translate(-98.54 -98.54)"/><path class="cls-5" d="M300.79,375.71c13.92-40.15,18.48-83.52,18.17-125.77C318.65,207.2,313.37,163.52,299,123" transform="translate(-98.54 -98.54)"/><path class="cls-5" d="M273.51,114c8.78,44.65,11.67,90.49,12,135.92s-1.86,91.3-10.62,135.92" transform="translate(-98.54 -98.54)"/></svg>